<mxfile host="65bd71144e">
    <diagram id="kd23nPT-_r8xEt_PE_R2" name="Architectuur">
        <mxGraphModel dx="1054" dy="639" grid="1" gridSize="10" guides="1" tooltips="1" connect="1" arrows="1" fold="1" page="1" pageScale="1" pageWidth="850" pageHeight="1100" math="0" shadow="0">
            <root>
                <mxCell id="0"/>
                <mxCell id="1" parent="0"/>
                <mxCell id="2" value="C#" style="text;html=1;strokeColor=none;fillColor=none;align=center;verticalAlign=middle;whiteSpace=wrap;rounded=0;" vertex="1" parent="1">
                    <mxGeometry x="110" y="90" width="40" height="20" as="geometry"/>
                </mxCell>
                <mxCell id="3" value="compiler" style="endArrow=classic;html=1;exitX=0.5;exitY=1;exitDx=0;exitDy=0;" edge="1" parent="1" source="2">
                    <mxGeometry width="50" height="50" relative="1" as="geometry">
                        <mxPoint x="510" y="350" as="sourcePoint"/>
                        <mxPoint x="170" y="200" as="targetPoint"/>
                    </mxGeometry>
                </mxCell>
                <mxCell id="4" value=".dll/.exe met daarin:&lt;br&gt;&lt;br&gt;MSIL" style="text;html=1;strokeColor=#006EAF;fillColor=#1ba1e2;align=center;verticalAlign=middle;whiteSpace=wrap;rounded=0;fontColor=#ffffff;" vertex="1" parent="1">
                    <mxGeometry x="110" y="220" width="180" height="60" as="geometry"/>
                </mxCell>
                <mxCell id="5" value="VB" style="text;html=1;strokeColor=none;fillColor=none;align=center;verticalAlign=middle;whiteSpace=wrap;rounded=0;" vertex="1" parent="1">
                    <mxGeometry x="180" y="90" width="40" height="20" as="geometry"/>
                </mxCell>
                <mxCell id="6" value="F#" style="text;html=1;strokeColor=none;fillColor=none;align=center;verticalAlign=middle;whiteSpace=wrap;rounded=0;" vertex="1" parent="1">
                    <mxGeometry x="250" y="90" width="40" height="20" as="geometry"/>
                </mxCell>
                <mxCell id="7" value="compiler" style="endArrow=classic;html=1;" edge="1" parent="1" source="5">
                    <mxGeometry width="50" height="50" relative="1" as="geometry">
                        <mxPoint x="180" y="110" as="sourcePoint"/>
                        <mxPoint x="202" y="200" as="targetPoint"/>
                    </mxGeometry>
                </mxCell>
                <mxCell id="8" value="compiler" style="endArrow=classic;html=1;exitX=0.5;exitY=1;exitDx=0;exitDy=0;" edge="1" parent="1" source="6">
                    <mxGeometry width="50" height="50" relative="1" as="geometry">
                        <mxPoint x="150" y="130" as="sourcePoint"/>
                        <mxPoint x="230" y="210" as="targetPoint"/>
                    </mxGeometry>
                </mxCell>
                <mxCell id="9" value="Common Language Runtime" style="rounded=0;whiteSpace=wrap;html=1;fillColor=#008a00;strokeColor=#005700;fontColor=#ffffff;" vertex="1" parent="1">
                    <mxGeometry x="340" y="330" width="230" height="60" as="geometry"/>
                </mxCell>
                <mxCell id="10" value="Win" style="rounded=0;whiteSpace=wrap;html=1;fillColor=#0050ef;strokeColor=#001DBC;fontColor=#ffffff;" vertex="1" parent="1">
                    <mxGeometry x="70" y="330" width="70" height="60" as="geometry"/>
                </mxCell>
                <mxCell id="11" value="Linux" style="rounded=0;whiteSpace=wrap;html=1;fillColor=#d80073;strokeColor=#A50040;fontColor=#ffffff;" vertex="1" parent="1">
                    <mxGeometry x="160" y="330" width="50" height="60" as="geometry"/>
                </mxCell>
                <mxCell id="12" value="macOS" style="rounded=0;whiteSpace=wrap;html=1;fillColor=#60a917;strokeColor=#2D7600;fontColor=#ffffff;" vertex="1" parent="1">
                    <mxGeometry x="230" y="330" width="60" height="60" as="geometry"/>
                </mxCell>
            </root>
        </mxGraphModel>
    </diagram>
    <diagram id="DkP10PjORxEK80cQDykl" name="Lijstjes">
        <mxGraphModel dx="1054" dy="639" grid="1" gridSize="10" guides="1" tooltips="1" connect="1" arrows="1" fold="1" page="1" pageScale="1" pageWidth="850" pageHeight="1100" math="0" shadow="0">
            <root>
                <mxCell id="Gm9lHabqxxbkhm1hQbfV-0"/>
                <mxCell id="Gm9lHabqxxbkhm1hQbfV-1" parent="Gm9lHabqxxbkhm1hQbfV-0"/>
                <mxCell id="Gm9lHabqxxbkhm1hQbfV-85" value="" style="ellipse;shape=cloud;whiteSpace=wrap;html=1;" vertex="1" parent="Gm9lHabqxxbkhm1hQbfV-1">
                    <mxGeometry x="450" y="280" width="350" height="250" as="geometry"/>
                </mxCell>
                <mxCell id="Gm9lHabqxxbkhm1hQbfV-2" value="" style="rounded=0;whiteSpace=wrap;html=1;fillColor=#008a00;strokeColor=#005700;fontColor=#ffffff;" vertex="1" parent="Gm9lHabqxxbkhm1hQbfV-1">
                    <mxGeometry x="70" y="120" width="170" height="60" as="geometry"/>
                </mxCell>
                <mxCell id="Gm9lHabqxxbkhm1hQbfV-3" value="4" style="rounded=0;whiteSpace=wrap;html=1;" vertex="1" parent="Gm9lHabqxxbkhm1hQbfV-1">
                    <mxGeometry x="80" y="125" width="30" height="50" as="geometry"/>
                </mxCell>
                <mxCell id="Gm9lHabqxxbkhm1hQbfV-4" value="78" style="rounded=0;whiteSpace=wrap;html=1;" vertex="1" parent="Gm9lHabqxxbkhm1hQbfV-1">
                    <mxGeometry x="120" y="125" width="30" height="50" as="geometry"/>
                </mxCell>
                <mxCell id="Gm9lHabqxxbkhm1hQbfV-5" value="344" style="rounded=0;whiteSpace=wrap;html=1;" vertex="1" parent="Gm9lHabqxxbkhm1hQbfV-1">
                    <mxGeometry x="160" y="125" width="30" height="50" as="geometry"/>
                </mxCell>
                <mxCell id="Gm9lHabqxxbkhm1hQbfV-6" value="-98" style="rounded=0;whiteSpace=wrap;html=1;" vertex="1" parent="Gm9lHabqxxbkhm1hQbfV-1">
                    <mxGeometry x="200" y="125" width="30" height="50" as="geometry"/>
                </mxCell>
                <mxCell id="Gm9lHabqxxbkhm1hQbfV-8" value="Stack" style="text;html=1;strokeColor=none;fillColor=none;align=center;verticalAlign=middle;whiteSpace=wrap;rounded=0;" vertex="1" parent="Gm9lHabqxxbkhm1hQbfV-1">
                    <mxGeometry x="100" y="240" width="40" height="20" as="geometry"/>
                </mxCell>
                <mxCell id="Gm9lHabqxxbkhm1hQbfV-9" value="Heap" style="text;html=1;strokeColor=none;fillColor=none;align=center;verticalAlign=middle;whiteSpace=wrap;rounded=0;" vertex="1" parent="Gm9lHabqxxbkhm1hQbfV-1">
                    <mxGeometry x="470" y="260" width="40" height="20" as="geometry"/>
                </mxCell>
                <mxCell id="Gm9lHabqxxbkhm1hQbfV-55" value="" style="shape=table;html=1;whiteSpace=wrap;startSize=0;container=1;collapsible=0;childLayout=tableLayout;" vertex="1" parent="Gm9lHabqxxbkhm1hQbfV-1">
                    <mxGeometry x="100" y="270" width="180" height="260" as="geometry"/>
                </mxCell>
                <mxCell id="Gm9lHabqxxbkhm1hQbfV-56" value="" style="shape=partialRectangle;html=1;whiteSpace=wrap;collapsible=0;dropTarget=0;pointerEvents=0;fillColor=none;top=0;left=0;bottom=0;right=0;points=[[0,0.5],[1,0.5]];portConstraint=eastwest;" vertex="1" parent="Gm9lHabqxxbkhm1hQbfV-55">
                    <mxGeometry width="180" height="20" as="geometry"/>
                </mxCell>
                <mxCell id="Gm9lHabqxxbkhm1hQbfV-57" value="$99bf" style="shape=partialRectangle;html=1;whiteSpace=wrap;connectable=0;fillColor=none;top=0;left=0;bottom=0;right=0;overflow=hidden;" vertex="1" parent="Gm9lHabqxxbkhm1hQbfV-56">
                    <mxGeometry width="90" height="20" as="geometry"/>
                </mxCell>
                <mxCell id="Gm9lHabqxxbkhm1hQbfV-58" value="14" style="shape=partialRectangle;html=1;whiteSpace=wrap;connectable=0;fillColor=none;top=0;left=0;bottom=0;right=0;overflow=hidden;" vertex="1" parent="Gm9lHabqxxbkhm1hQbfV-56">
                    <mxGeometry x="90" width="70" height="20" as="geometry"/>
                </mxCell>
                <mxCell id="Gm9lHabqxxbkhm1hQbfV-59" value="" style="shape=partialRectangle;html=1;whiteSpace=wrap;connectable=0;fillColor=none;top=0;left=0;bottom=0;right=0;overflow=hidden;" vertex="1" parent="Gm9lHabqxxbkhm1hQbfV-56">
                    <mxGeometry x="160" width="20" height="20" as="geometry"/>
                </mxCell>
                <mxCell id="Gm9lHabqxxbkhm1hQbfV-60" value="" style="shape=partialRectangle;html=1;whiteSpace=wrap;collapsible=0;dropTarget=0;pointerEvents=0;fillColor=none;top=0;left=0;bottom=0;right=0;points=[[0,0.5],[1,0.5]];portConstraint=eastwest;" vertex="1" parent="Gm9lHabqxxbkhm1hQbfV-55">
                    <mxGeometry y="20" width="180" height="40" as="geometry"/>
                </mxCell>
                <mxCell id="Gm9lHabqxxbkhm1hQbfV-61" value="getal1" style="shape=partialRectangle;html=1;whiteSpace=wrap;connectable=0;fillColor=none;top=0;left=0;bottom=0;right=0;overflow=hidden;" vertex="1" parent="Gm9lHabqxxbkhm1hQbfV-60">
                    <mxGeometry width="90" height="40" as="geometry"/>
                </mxCell>
                <mxCell id="Gm9lHabqxxbkhm1hQbfV-62" value="4" style="shape=partialRectangle;html=1;whiteSpace=wrap;connectable=0;fillColor=none;top=0;left=0;bottom=0;right=0;overflow=hidden;" vertex="1" parent="Gm9lHabqxxbkhm1hQbfV-60">
                    <mxGeometry x="90" width="70" height="40" as="geometry"/>
                </mxCell>
                <mxCell id="Gm9lHabqxxbkhm1hQbfV-63" value="" style="shape=partialRectangle;html=1;whiteSpace=wrap;connectable=0;fillColor=none;top=0;left=0;bottom=0;right=0;overflow=hidden;" vertex="1" parent="Gm9lHabqxxbkhm1hQbfV-60">
                    <mxGeometry x="160" width="20" height="40" as="geometry"/>
                </mxCell>
                <mxCell id="Gm9lHabqxxbkhm1hQbfV-64" value="" style="shape=partialRectangle;html=1;whiteSpace=wrap;collapsible=0;dropTarget=0;pointerEvents=0;fillColor=none;top=0;left=0;bottom=0;right=0;points=[[0,0.5],[1,0.5]];portConstraint=eastwest;" vertex="1" parent="Gm9lHabqxxbkhm1hQbfV-55">
                    <mxGeometry y="60" width="180" height="40" as="geometry"/>
                </mxCell>
                <mxCell id="Gm9lHabqxxbkhm1hQbfV-65" value="waarofnietwaar" style="shape=partialRectangle;html=1;whiteSpace=wrap;connectable=0;fillColor=none;top=0;left=0;bottom=0;right=0;overflow=hidden;" vertex="1" parent="Gm9lHabqxxbkhm1hQbfV-64">
                    <mxGeometry width="90" height="40" as="geometry"/>
                </mxCell>
                <mxCell id="Gm9lHabqxxbkhm1hQbfV-66" value="true" style="shape=partialRectangle;html=1;whiteSpace=wrap;connectable=0;fillColor=none;top=0;left=0;bottom=0;right=0;overflow=hidden;" vertex="1" parent="Gm9lHabqxxbkhm1hQbfV-64">
                    <mxGeometry x="90" width="70" height="40" as="geometry"/>
                </mxCell>
                <mxCell id="Gm9lHabqxxbkhm1hQbfV-67" value="" style="shape=partialRectangle;html=1;whiteSpace=wrap;connectable=0;fillColor=none;top=0;left=0;bottom=0;right=0;overflow=hidden;" vertex="1" parent="Gm9lHabqxxbkhm1hQbfV-64">
                    <mxGeometry x="160" width="20" height="40" as="geometry"/>
                </mxCell>
                <mxCell id="Gm9lHabqxxbkhm1hQbfV-68" value="" style="shape=partialRectangle;html=1;whiteSpace=wrap;collapsible=0;dropTarget=0;pointerEvents=0;fillColor=none;top=0;left=0;bottom=0;right=0;points=[[0,0.5],[1,0.5]];portConstraint=eastwest;" vertex="1" parent="Gm9lHabqxxbkhm1hQbfV-55">
                    <mxGeometry y="100" width="180" height="40" as="geometry"/>
                </mxCell>
                <mxCell id="Gm9lHabqxxbkhm1hQbfV-69" value="tekst" style="shape=partialRectangle;html=1;whiteSpace=wrap;connectable=0;fillColor=none;top=0;left=0;bottom=0;right=0;overflow=hidden;" vertex="1" parent="Gm9lHabqxxbkhm1hQbfV-68">
                    <mxGeometry width="90" height="40" as="geometry"/>
                </mxCell>
                <mxCell id="Gm9lHabqxxbkhm1hQbfV-70" value="$ba7c" style="shape=partialRectangle;html=1;whiteSpace=wrap;connectable=0;fillColor=none;top=0;left=0;bottom=0;right=0;overflow=hidden;" vertex="1" parent="Gm9lHabqxxbkhm1hQbfV-68">
                    <mxGeometry x="90" width="70" height="40" as="geometry"/>
                </mxCell>
                <mxCell id="Gm9lHabqxxbkhm1hQbfV-71" value="" style="shape=partialRectangle;html=1;whiteSpace=wrap;connectable=0;fillColor=none;top=0;left=0;bottom=0;right=0;overflow=hidden;" vertex="1" parent="Gm9lHabqxxbkhm1hQbfV-68">
                    <mxGeometry x="160" width="20" height="40" as="geometry"/>
                </mxCell>
                <mxCell id="Gm9lHabqxxbkhm1hQbfV-72" value="" style="shape=partialRectangle;html=1;whiteSpace=wrap;collapsible=0;dropTarget=0;pointerEvents=0;fillColor=none;top=0;left=0;bottom=0;right=0;points=[[0,0.5],[1,0.5]];portConstraint=eastwest;" vertex="1" parent="Gm9lHabqxxbkhm1hQbfV-55">
                    <mxGeometry y="140" width="180" height="40" as="geometry"/>
                </mxCell>
                <mxCell id="Gm9lHabqxxbkhm1hQbfV-73" value="getallen" style="shape=partialRectangle;html=1;whiteSpace=wrap;connectable=0;fillColor=none;top=0;left=0;bottom=0;right=0;overflow=hidden;" vertex="1" parent="Gm9lHabqxxbkhm1hQbfV-72">
                    <mxGeometry width="90" height="40" as="geometry"/>
                </mxCell>
                <mxCell id="Gm9lHabqxxbkhm1hQbfV-74" value="$ab12" style="shape=partialRectangle;html=1;whiteSpace=wrap;connectable=0;fillColor=none;top=0;left=0;bottom=0;right=0;overflow=hidden;" vertex="1" parent="Gm9lHabqxxbkhm1hQbfV-72">
                    <mxGeometry x="90" width="70" height="40" as="geometry"/>
                </mxCell>
                <mxCell id="Gm9lHabqxxbkhm1hQbfV-75" value="" style="shape=partialRectangle;html=1;whiteSpace=wrap;connectable=0;fillColor=none;top=0;left=0;bottom=0;right=0;overflow=hidden;" vertex="1" parent="Gm9lHabqxxbkhm1hQbfV-72">
                    <mxGeometry x="160" width="20" height="40" as="geometry"/>
                </mxCell>
                <mxCell id="Gm9lHabqxxbkhm1hQbfV-76" value="" style="shape=partialRectangle;html=1;whiteSpace=wrap;collapsible=0;dropTarget=0;pointerEvents=0;fillColor=none;top=0;left=0;bottom=0;right=0;points=[[0,0.5],[1,0.5]];portConstraint=eastwest;" vertex="1" parent="Gm9lHabqxxbkhm1hQbfV-55">
                    <mxGeometry y="180" width="180" height="40" as="geometry"/>
                </mxCell>
                <mxCell id="Gm9lHabqxxbkhm1hQbfV-77" value="tekstje" style="shape=partialRectangle;html=1;whiteSpace=wrap;connectable=0;fillColor=none;top=0;left=0;bottom=0;right=0;overflow=hidden;" vertex="1" parent="Gm9lHabqxxbkhm1hQbfV-76">
                    <mxGeometry width="90" height="40" as="geometry"/>
                </mxCell>
                <mxCell id="Gm9lHabqxxbkhm1hQbfV-78" value="null" style="shape=partialRectangle;html=1;whiteSpace=wrap;connectable=0;fillColor=none;top=0;left=0;bottom=0;right=0;overflow=hidden;" vertex="1" parent="Gm9lHabqxxbkhm1hQbfV-76">
                    <mxGeometry x="90" width="70" height="40" as="geometry"/>
                </mxCell>
                <mxCell id="Gm9lHabqxxbkhm1hQbfV-79" value="" style="shape=partialRectangle;html=1;whiteSpace=wrap;connectable=0;fillColor=none;top=0;left=0;bottom=0;right=0;overflow=hidden;" vertex="1" parent="Gm9lHabqxxbkhm1hQbfV-76">
                    <mxGeometry x="160" width="20" height="40" as="geometry"/>
                </mxCell>
                <mxCell id="Gm9lHabqxxbkhm1hQbfV-80" value="" style="shape=partialRectangle;html=1;whiteSpace=wrap;collapsible=0;dropTarget=0;pointerEvents=0;fillColor=none;top=0;left=0;bottom=0;right=0;points=[[0,0.5],[1,0.5]];portConstraint=eastwest;" vertex="1" parent="Gm9lHabqxxbkhm1hQbfV-55">
                    <mxGeometry y="220" width="180" height="40" as="geometry"/>
                </mxCell>
                <mxCell id="Gm9lHabqxxbkhm1hQbfV-81" value="" style="shape=partialRectangle;html=1;whiteSpace=wrap;connectable=0;fillColor=none;top=0;left=0;bottom=0;right=0;overflow=hidden;" vertex="1" parent="Gm9lHabqxxbkhm1hQbfV-80">
                    <mxGeometry width="90" height="40" as="geometry"/>
                </mxCell>
                <mxCell id="Gm9lHabqxxbkhm1hQbfV-82" value="" style="shape=partialRectangle;html=1;whiteSpace=wrap;connectable=0;fillColor=none;top=0;left=0;bottom=0;right=0;overflow=hidden;" vertex="1" parent="Gm9lHabqxxbkhm1hQbfV-80">
                    <mxGeometry x="90" width="70" height="40" as="geometry"/>
                </mxCell>
                <mxCell id="Gm9lHabqxxbkhm1hQbfV-83" value="" style="shape=partialRectangle;html=1;whiteSpace=wrap;connectable=0;fillColor=none;top=0;left=0;bottom=0;right=0;overflow=hidden;" vertex="1" parent="Gm9lHabqxxbkhm1hQbfV-80">
                    <mxGeometry x="160" width="20" height="40" as="geometry"/>
                </mxCell>
                <mxCell id="Gm9lHabqxxbkhm1hQbfV-84" value="" style="endArrow=classic;html=1;exitX=1;exitY=0.5;exitDx=0;exitDy=0;" edge="1" parent="Gm9lHabqxxbkhm1hQbfV-1" source="Gm9lHabqxxbkhm1hQbfV-68" target="Gm9lHabqxxbkhm1hQbfV-86">
                    <mxGeometry width="50" height="50" relative="1" as="geometry">
                        <mxPoint x="400" y="350" as="sourcePoint"/>
                        <mxPoint x="470" y="320" as="targetPoint"/>
                    </mxGeometry>
                </mxCell>
                <mxCell id="Gm9lHabqxxbkhm1hQbfV-86" value="&quot;hallo&quot;" style="text;html=1;strokeColor=none;fillColor=none;align=center;verticalAlign=middle;whiteSpace=wrap;rounded=0;" vertex="1" parent="Gm9lHabqxxbkhm1hQbfV-1">
                    <mxGeometry x="580" y="400" width="40" height="20" as="geometry"/>
                </mxCell>
                <mxCell id="Gm9lHabqxxbkhm1hQbfV-93" value="" style="group" vertex="1" connectable="0" parent="Gm9lHabqxxbkhm1hQbfV-1">
                    <mxGeometry x="630" y="440" width="90" height="30" as="geometry"/>
                </mxCell>
                <mxCell id="Gm9lHabqxxbkhm1hQbfV-88" value="" style="rounded=0;whiteSpace=wrap;html=1;fillColor=#008a00;strokeColor=#005700;fontColor=#ffffff;" vertex="1" parent="Gm9lHabqxxbkhm1hQbfV-93">
                    <mxGeometry width="90" height="30" as="geometry"/>
                </mxCell>
                <mxCell id="Gm9lHabqxxbkhm1hQbfV-89" value="4" style="rounded=0;whiteSpace=wrap;html=1;" vertex="1" parent="Gm9lHabqxxbkhm1hQbfV-93">
                    <mxGeometry x="5.294117647058824" y="2.5" width="15.882352941176473" height="24.999999999999996" as="geometry"/>
                </mxCell>
                <mxCell id="Gm9lHabqxxbkhm1hQbfV-90" value="78" style="rounded=0;whiteSpace=wrap;html=1;" vertex="1" parent="Gm9lHabqxxbkhm1hQbfV-93">
                    <mxGeometry x="26.47058823529412" y="2.5" width="15.882352941176473" height="24.999999999999996" as="geometry"/>
                </mxCell>
                <mxCell id="Gm9lHabqxxbkhm1hQbfV-91" value="344" style="rounded=0;whiteSpace=wrap;html=1;" vertex="1" parent="Gm9lHabqxxbkhm1hQbfV-93">
                    <mxGeometry x="47.64705882352942" y="2.5" width="15.882352941176473" height="24.999999999999996" as="geometry"/>
                </mxCell>
                <mxCell id="Gm9lHabqxxbkhm1hQbfV-92" value="-98" style="rounded=0;whiteSpace=wrap;html=1;" vertex="1" parent="Gm9lHabqxxbkhm1hQbfV-93">
                    <mxGeometry x="68.82352941176471" y="2.5" width="15.882352941176473" height="24.999999999999996" as="geometry"/>
                </mxCell>
                <mxCell id="Gm9lHabqxxbkhm1hQbfV-104" value="" style="group" vertex="1" connectable="0" parent="Gm9lHabqxxbkhm1hQbfV-1">
                    <mxGeometry x="550" y="340" width="120" height="30" as="geometry"/>
                </mxCell>
                <mxCell id="Gm9lHabqxxbkhm1hQbfV-97" value="" style="group" vertex="1" connectable="0" parent="Gm9lHabqxxbkhm1hQbfV-104">
                    <mxGeometry width="120" height="30" as="geometry"/>
                </mxCell>
                <mxCell id="Gm9lHabqxxbkhm1hQbfV-98" value="" style="rounded=0;whiteSpace=wrap;html=1;fillColor=#008a00;strokeColor=#005700;fontColor=#ffffff;" vertex="1" parent="Gm9lHabqxxbkhm1hQbfV-97">
                    <mxGeometry width="120" height="30" as="geometry"/>
                </mxCell>
                <mxCell id="Gm9lHabqxxbkhm1hQbfV-99" value="" style="rounded=0;whiteSpace=wrap;html=1;" vertex="1" parent="Gm9lHabqxxbkhm1hQbfV-97">
                    <mxGeometry x="5.294117647058824" y="2.5" width="15.882352941176473" height="24.999999999999996" as="geometry"/>
                </mxCell>
                <mxCell id="Gm9lHabqxxbkhm1hQbfV-100" value="" style="rounded=0;whiteSpace=wrap;html=1;" vertex="1" parent="Gm9lHabqxxbkhm1hQbfV-97">
                    <mxGeometry x="26.47058823529412" y="2.5" width="15.882352941176473" height="24.999999999999996" as="geometry"/>
                </mxCell>
                <mxCell id="Gm9lHabqxxbkhm1hQbfV-101" value="" style="rounded=0;whiteSpace=wrap;html=1;" vertex="1" parent="Gm9lHabqxxbkhm1hQbfV-97">
                    <mxGeometry x="47.64705882352942" y="2.5" width="15.882352941176473" height="24.999999999999996" as="geometry"/>
                </mxCell>
                <mxCell id="Gm9lHabqxxbkhm1hQbfV-102" value="" style="rounded=0;whiteSpace=wrap;html=1;" vertex="1" parent="Gm9lHabqxxbkhm1hQbfV-97">
                    <mxGeometry x="68.82352941176471" y="2.5" width="15.882352941176473" height="24.999999999999996" as="geometry"/>
                </mxCell>
                <mxCell id="Gm9lHabqxxbkhm1hQbfV-103" value="" style="rounded=0;whiteSpace=wrap;html=1;" vertex="1" parent="Gm9lHabqxxbkhm1hQbfV-104">
                    <mxGeometry x="90.0035294117647" y="2.5" width="15.882352941176473" height="24.999999999999996" as="geometry"/>
                </mxCell>
                <mxCell id="Gm9lHabqxxbkhm1hQbfV-94" value="" style="endArrow=classic;html=1;exitX=1;exitY=0.5;exitDx=0;exitDy=0;" edge="1" parent="Gm9lHabqxxbkhm1hQbfV-1">
                    <mxGeometry width="50" height="50" relative="1" as="geometry">
                        <mxPoint x="280" y="430" as="sourcePoint"/>
                        <mxPoint x="560" y="360" as="targetPoint"/>
                    </mxGeometry>
                </mxCell>
            </root>
        </mxGraphModel>
    </diagram>
</mxfile>